<?xml version="1.0" standalone="no"?>
<!DOCTYPE svg PUBLIC "-//W3C//DTD SVG 20010904//EN"
 "http://www.w3.org/TR/2001/REC-SVG-20010904/DTD/svg10.dtd">
<svg version="1.0" xmlns="http://www.w3.org/2000/svg"
 width="528.000000pt" height="528.000000pt" viewBox="0 0 528.000000 528.000000"
 preserveAspectRatio="xMidYMid meet">
<metadata>
Created by potrace 1.11, written by Peter Selinger 2001-2013
</metadata>
<g transform="translate(0.000000,528.000000) scale(0.100000,-0.100000)"
fill="#000000" stroke="none">
<path d="M2880 4893 c0 -4 -32 -41 -70 -82 -39 -41 -70 -77 -70 -80 0 -3 -17
-22 -36 -41 -20 -19 -42 -48 -50 -63 -9 -16 -20 -25 -26 -21 -6 4 -8 3 -4 -4
9 -15 -15 -63 -28 -55 -6 3 -8 3 -4 -2 11 -11 -11 -47 -24 -39 -7 4 -8 3 -4
-4 4 -6 3 -19 -2 -29 -14 -27 -29 -65 -40 -98 -10 -35 -6 -161 6 -196 13 -33
-4 -79 -26 -72 -14 4 -15 3 -2 -6 12 -8 12 -13 2 -23 -10 -10 -15 -10 -23 2
-9 13 -10 13 -6 -2 3 -9 -1 -19 -9 -22 -25 -10 -84 -7 -84 4 0 6 -6 10 -13 10
-19 0 -50 37 -42 50 3 6 1 9 -7 8 -7 -2 -12 5 -12 14 1 11 -4 14 -14 10 -11
-4 -14 -1 -9 11 3 9 3 16 -1 16 -19 -3 -32 2 -32 14 0 7 -9 18 -20 25 -12 7
-18 18 -14 24 4 6 3 8 -3 5 -13 -8 -36 17 -25 27 4 4 0 6 -8 4 -8 -2 -14 3
-12 10 1 8 -2 11 -7 8 -11 -7 -67 61 -58 71 10 9 -12 43 -28 43 -9 0 -12 6 -8
17 5 12 3 14 -8 8 -8 -4 -11 -5 -7 0 4 4 3 14 -3 22 -9 9 -8 13 0 13 9 0 9 5
1 20 -8 16 -8 20 4 20 8 0 17 4 20 9 4 5 -4 7 -16 4 -14 -3 -19 -1 -12 4 26
21 -11 176 -50 204 -4 4 -2 9 5 12 9 4 8 6 -5 6 -11 1 -16 6 -13 15 3 8 1 16
-4 18 -6 2 -23 25 -38 52 -14 27 -29 48 -33 47 -9 -2 -59 -51 -52 -51 5 0 -84
-119 -97 -130 -11 -9 -109 -171 -109 -180 0 -5 -7 -13 -16 -18 -9 -5 -16 -13
-16 -18 -2 -25 -11 -43 -19 -38 -5 3 -6 -2 -3 -11 4 -8 1 -22 -6 -30 -7 -8 -9
-15 -5 -15 4 0 3 -6 -2 -12 -12 -15 -11 -187 1 -206 22 -36 -37 -118 -77 -107
-18 5 -19 4 -7 -4 12 -8 7 -11 -21 -11 -27 0 -46 8 -73 33 -20 18 -36 41 -36
51 0 9 -4 15 -8 12 -8 -5 -92 77 -92 90 0 12 -28 33 -35 26 -5 -4 -5 2 -1 13
4 11 4 16 0 12 -11 -11 -53 33 -47 49 3 9 0 14 -7 12 -20 -5 -70 89 -75 138
-4 49 0 52 28 27 19 -18 19 -17 6 5 -8 12 -17 22 -21 22 -5 0 -8 5 -8 11 0 5
4 7 10 4 6 -3 10 -1 10 4 0 6 -4 11 -9 11 -5 0 -11 17 -14 38 -7 55 -11 68
-26 86 -7 8 -10 20 -6 26 3 5 1 10 -5 10 -6 0 -8 5 -5 10 3 6 1 10 -4 10 -6 0
-11 5 -11 11 0 5 6 7 13 3 7 -4 9 -3 4 2 -5 5 -13 10 -18 10 -22 3 -23 5 -9
14 10 6 11 10 3 10 -7 0 -22 18 -33 40 -18 35 -35 55 -28 33 4 -13 -45 -63
-55 -56 -6 3 -7 2 -4 -4 3 -5 -31 -48 -76 -95 -45 -48 -83 -94 -85 -103 -2
-10 -12 -27 -23 -38 -10 -11 -19 -27 -19 -34 0 -8 -7 -16 -15 -19 -8 -4 -13
-10 -10 -14 3 -4 -5 -19 -16 -34 -11 -14 -18 -26 -14 -26 3 0 -2 -15 -11 -32
-10 -18 -18 -51 -19 -73 0 -22 -4 -46 -8 -52 -5 -7 -4 -13 2 -13 6 0 6 -11 1
-30 -5 -18 -5 -32 1 -36 6 -3 8 -12 5 -19 -3 -8 0 -15 5 -17 6 -2 11 -20 12
-40 1 -20 6 -34 11 -31 4 3 5 -5 1 -18 -4 -17 -3 -20 3 -10 7 10 17 0 38 -40
16 -29 28 -56 26 -61 -1 -4 3 -7 10 -6 6 2 17 -7 23 -19 7 -13 14 -21 17 -18
2 3 11 -6 18 -20 7 -14 19 -25 26 -25 8 0 11 -6 7 -17 -4 -9 -2 -14 3 -10 6 3
15 -7 21 -22 13 -36 -5 -97 -29 -95 -9 1 -14 -4 -12 -11 3 -8 -16 -23 -52 -39
-64 -29 -68 -30 -58 -14 4 7 3 8 -5 4 -6 -4 -9 -11 -6 -15 2 -5 -16 -16 -40
-26 -25 -9 -45 -21 -45 -26 0 -5 -7 -9 -16 -9 -8 0 -22 -6 -30 -12 -7 -7 -51
-40 -97 -73 -78 -56 -177 -158 -205 -211 -7 -14 -18 -22 -24 -18 -6 4 -8 3 -5
-3 4 -6 -3 -33 -15 -59 -29 -67 -48 -141 -48 -192 0 -32 -3 -41 -13 -36 -8 5
-8 2 2 -9 8 -10 10 -22 5 -29 -5 -7 -9 -49 -9 -93 0 -44 -4 -83 -10 -87 -6 -5
-7 -8 0 -8 12 0 13 -149 1 -169 -6 -9 -5 -12 1 -8 6 4 11 -6 12 -21 0 -15 2
-48 4 -74 2 -29 -1 -48 -7 -48 -7 0 -7 -3 0 -8 7 -4 15 -38 18 -77 3 -38 10
-88 14 -111 5 -22 8 -48 6 -57 -1 -9 2 -20 7 -23 6 -3 5 -12 -3 -22 -11 -13
-11 -14 1 -7 11 6 13 2 9 -18 -3 -16 -1 -24 5 -20 6 4 8 -4 5 -21 -3 -14 -2
-26 1 -26 4 0 8 -8 9 -17 3 -31 7 -48 15 -59 4 -7 8 -28 9 -47 2 -19 6 -33 9
-31 4 2 9 -5 12 -16 3 -11 0 -20 -6 -20 -9 0 -9 -2 0 -8 15 -10 45 -94 29 -85
-6 3 -3 -3 7 -14 20 -23 22 -37 5 -27 -7 4 -3 -3 9 -14 13 -13 20 -30 18 -42
-2 -11 0 -18 6 -15 5 4 9 2 9 -3 0 -5 8 -27 17 -48 9 -22 16 -42 15 -46 -1 -5
3 -8 9 -8 5 0 8 -4 5 -9 -4 -5 -2 -11 4 -13 5 -1 11 -15 12 -30 1 -15 5 -25 9
-22 4 2 13 -11 20 -29 7 -17 15 -34 18 -37 16 -14 41 -71 36 -80 -4 -6 -1 -9
7 -8 8 2 13 -6 12 -19 0 -12 4 -19 9 -16 9 5 30 -20 57 -69 8 -15 47 -67 85
-115 39 -48 69 -92 67 -98 -2 -5 0 -7 4 -2 10 9 74 -52 74 -71 0 -7 4 -11 8
-8 10 6 58 -45 54 -56 -1 -5 1 -7 6 -7 20 3 32 -3 32 -17 0 -9 5 -12 12 -8 7
5 9 2 5 -9 -4 -11 -2 -14 9 -10 8 3 14 -1 14 -11 0 -9 3 -15 8 -15 20 3 32 -3
32 -17 0 -8 4 -13 9 -10 5 3 26 -8 46 -24 21 -17 42 -30 47 -30 6 0 8 -6 5
-14 -4 -10 0 -12 14 -9 10 3 19 0 19 -6 0 -6 7 -11 16 -11 10 0 14 -6 11 -15
-4 -8 -1 -17 5 -21 7 -4 8 -3 4 4 -4 7 -1 12 6 12 21 0 78 -38 78 -52 0 -9 3
-8 10 2 5 8 10 10 10 5 0 -6 16 -17 36 -24 25 -9 34 -17 29 -28 -4 -13 -3 -13
9 -4 11 9 17 8 30 -4 9 -9 16 -14 16 -11 0 6 58 -14 119 -41 18 -8 41 -16 50
-18 9 -1 15 -8 14 -14 -2 -6 2 -11 7 -11 6 0 10 4 10 9 0 10 26 9 36 -2 4 -4
20 -7 36 -7 15 0 28 -5 28 -11 0 -6 7 -9 15 -5 8 3 15 0 15 -7 0 -9 2 -9 9 1
6 10 10 10 21 -3 7 -8 18 -15 24 -15 6 0 4 5 -4 11 -12 9 -12 10 3 5 10 -3 21
-6 23 -6 3 0 2 -5 -2 -12 -5 -7 -3 -8 7 -3 18 12 49 14 49 4 0 -5 7 -6 15 -3
8 4 27 -2 41 -11 15 -9 24 -13 20 -7 -3 6 7 9 24 8 25 -1 29 -4 25 -21 -3 -11
-2 -14 1 -7 3 6 10 10 14 7 5 -3 12 0 16 6 4 8 3 9 -4 5 -7 -4 -12 -2 -12 4 0
6 8 9 18 6 9 -3 45 -6 80 -7 38 -1 62 -6 62 -13 0 -7 3 -8 8 -1 16 24 91 8 77
-15 -3 -5 -1 -12 5 -15 6 -4 10 -3 9 2 -3 17 14 52 22 47 5 -3 7 -11 3 -17 -3
-7 1 -4 8 5 8 9 28 17 44 18 82 3 94 5 94 14 0 5 7 1 16 -10 13 -16 15 -16 10
-1 -3 9 -1 17 4 17 6 0 10 -6 10 -12 0 -10 2 -10 8 -1 4 7 30 17 58 22 27 5
60 14 74 19 14 5 27 9 30 9 6 0 113 31 135 39 9 4 15 3 13 -2 -2 -5 2 -10 7
-11 6 -1 9 4 7 11 -2 12 5 16 43 25 5 1 11 -3 14 -10 2 -7 -1 -9 -8 -5 -7 5
-8 1 -4 -10 4 -11 8 -13 11 -6 2 7 8 9 14 6 6 -4 6 2 -1 14 -14 26 -14 35 0
26 6 -3 15 0 20 7 6 10 9 11 9 2 0 -7 4 -13 10 -13 5 0 7 7 4 15 -5 11 -2 13
12 8 10 -4 15 -2 11 3 -3 6 3 10 13 11 11 1 22 -3 25 -8 9 -14 25 -1 25 20 0
22 64 53 79 38 6 -6 11 -7 11 -2 0 6 5 3 11 -5 9 -13 10 -13 6 0 -2 8 -10 14
-16 13 -6 -2 -11 4 -11 12 0 17 16 20 25 5 4 -6 11 -7 17 -4 8 5 9 1 4 -12 -5
-14 -4 -16 5 -7 13 13 3 37 -12 28 -5 -4 -9 -2 -9 4 0 5 9 13 20 16 11 3 20
11 20 16 0 6 5 7 12 3 7 -5 5 -11 -7 -21 -11 -7 -14 -13 -8 -13 15 0 36 27 29
39 -4 5 -2 12 3 15 5 4 12 -2 14 -11 4 -14 5 -13 6 5 1 27 9 28 28 5 13 -16
13 -16 4 3 -13 28 14 56 47 47 13 -3 22 -1 22 6 0 7 -4 9 -10 6 -5 -3 -10 -2
-10 4 0 19 19 21 30 4 10 -15 11 -15 6 -1 -5 18 24 58 43 58 6 0 11 5 11 11 0
6 8 8 19 4 11 -3 22 -1 26 4 3 7 0 8 -9 5 -9 -3 -16 -1 -16 5 0 6 8 11 18 11
9 0 26 7 36 15 23 18 14 20 -16 4 -13 -7 -18 -7 -14 -1 7 11 106 48 119 44 4
-1 7 2 7 7 0 5 11 12 25 15 16 4 23 11 19 18 -4 6 -3 8 3 5 6 -4 13 0 16 7 3
8 28 32 56 54 27 22 48 42 45 44 -4 5 88 58 100 58 3 0 3 -8 0 -17 -2 -10 1
-8 7 5 7 13 18 21 26 18 8 -3 11 -1 8 4 -6 10 22 20 65 22 14 1 28 7 32 13 5
6 8 6 8 -2 0 -7 4 -13 10 -13 5 0 7 6 4 13 -2 7 4 13 16 14 17 2 19 -1 9 -20
-7 -15 -3 -13 13 7 15 17 30 26 36 22 7 -4 12 -3 12 2 0 11 70 33 82 26 4 -3
8 -1 8 4 0 5 9 12 21 15 14 4 19 1 16 -7 -3 -7 4 -12 18 -12 13 0 21 4 19 8
-3 5 -10 6 -15 3 -5 -4 -9 -2 -9 4 0 15 18 23 25 11 4 -6 11 -7 17 -4 8 5 9 1
4 -12 -5 -14 -4 -16 5 -7 13 13 3 37 -12 28 -5 -4 -9 -2 -9 2 0 5 13 14 30 20
24 9 32 8 38 -3 6 -11 10 -9 21 9 13 20 13 21 -2 8 -10 -7 -17 -9 -17 -3 0 5
14 15 31 22 17 7 45 23 63 35 30 20 32 21 33 3 1 -11 -3 -16 -9 -12 -6 4 -8 3
-5 -4 8 -12 32 -10 44 3 4 4 3 5 -3 2 -15 -9 -25 16 -13 34 6 11 11 11 21 1 6
-6 16 -12 22 -12 5 0 2 6 -8 13 -16 12 -16 14 -2 26 9 8 16 10 16 7 0 -4 18
10 41 31 22 21 48 42 56 47 8 4 28 22 43 39 20 23 29 27 35 17 6 -9 4 -11 -6
-5 -12 8 -12 6 0 -8 18 -23 20 -22 15 12 -3 17 0 32 7 37 8 4 9 3 5 -4 -4 -7
-2 -12 3 -12 6 0 11 8 11 18 0 9 24 42 52 72 29 29 46 50 38 45 -7 -4 -1 8 14
28 31 40 36 43 54 25 7 -7 12 -8 12 -4 0 5 -8 15 -17 22 -17 13 -17 13 0 14 9
0 17 5 17 11 0 5 -5 7 -11 3 -6 -3 -3 5 6 20 10 14 21 26 26 26 5 0 8 3 8 8
-4 24 3 34 21 29 11 -3 23 0 27 5 3 7 1 8 -5 4 -7 -4 -12 -2 -12 4 0 6 -5 8
-12 4 -7 -4 -8 -3 -4 5 4 6 18 9 31 7 13 -3 29 2 36 10 8 10 8 14 0 14 -6 0
-11 -4 -11 -9 0 -5 -7 -8 -15 -7 -18 3 -32 16 -17 16 7 0 11 3 11 8 -4 24 3
43 14 39 6 -3 20 -8 30 -12 10 -4 17 -3 17 5 0 6 -4 9 -8 6 -15 -9 -35 11 -26
25 5 8 9 21 9 29 0 8 5 22 10 30 5 8 10 20 11 25 1 6 7 23 13 38 10 24 13 26
32 16 13 -6 19 -7 15 -1 -3 6 0 13 6 16 7 3 3 3 -9 1 -12 -3 -25 0 -29 6 -4 8
-3 9 5 5 8 -6 10 0 5 18 -4 16 -2 26 5 26 6 0 8 7 5 15 -6 15 11 22 19 8 2 -5
1 -1 -1 7 -8 24 -3 71 9 86 8 10 8 14 0 14 -7 0 -8 8 -1 24 5 13 6 27 3 30
-12 12 13 6 27 -6 8 -7 7 -4 -3 8 -20 24 -24 89 -4 78 8 -5 8 -2 -2 9 -11 14
-11 17 0 17 12 0 12 2 1 9 -19 12 -10 46 11 45 9 -1 14 3 11 8 -3 5 -13 7 -21
4 -12 -5 -14 0 -11 24 3 17 0 30 -6 30 -6 0 -4 5 4 10 12 8 12 10 1 10 -9 0
-12 9 -9 30 3 17 1 30 -4 30 -5 0 -7 3 -5 8 3 4 0 18 -6 32 -9 24 -12 32 -20
63 -2 6 -12 32 -23 57 -10 25 -18 48 -16 53 1 4 -2 7 -7 7 -5 0 -11 8 -15 18
-7 22 -28 55 -41 64 -5 4 -6 8 -2 8 4 0 -4 12 -18 26 -14 14 -23 30 -19 35 3
5 2 8 -3 7 -13 -4 -63 44 -56 55 3 6 1 7 -5 3 -6 -3 -16 -1 -24 6 -44 42 -218
138 -251 138 -11 0 -15 4 -11 12 4 6 3 8 -2 5 -5 -3 -38 1 -73 8 -80 16 -217
16 -296 0 -33 -7 -63 -11 -67 -8 -5 2 -8 -1 -8 -6 0 -6 -12 -11 -27 -11 -30 1
-73 30 -73 50 0 6 -5 8 -10 5 -5 -3 -10 -2 -10 4 0 5 3 11 8 14 4 2 1 2 -5 1
-17 -4 -76 54 -68 66 4 6 3 10 -2 9 -21 -4 -33 2 -33 18 0 9 -3 14 -6 10 -4
-3 -12 -1 -20 6 -30 27 -43 37 -49 37 -9 0 -99 62 -107 74 -4 6 -8 8 -8 3 0
-4 -14 0 -30 8 -18 9 -28 21 -24 27 4 7 3 8 -5 4 -16 -10 -132 46 -127 61 3 7
0 15 -6 19 -7 4 -8 3 -4 -4 4 -7 3 -12 -2 -12 -22 0 -20 29 1 33 18 3 16 5 -6
6 -18 1 -27 6 -24 14 2 6 0 20 -4 29 -7 12 -4 20 8 28 17 11 17 11 0 6 -11 -4
-20 0 -23 12 -3 9 -12 30 -21 45 -8 15 -12 35 -9 43 3 8 2 13 -3 10 -12 -8
-29 16 -26 37 2 9 -1 15 -5 12 -11 -7 -31 29 -27 47 2 7 2 10 0 6 -9 -15 -24
-8 -21 9 2 10 -3 18 -10 18 -16 0 -33 26 -25 39 3 5 2 6 -4 3 -5 -4 -24 10
-41 31 -18 20 -42 47 -54 60 -13 12 -18 22 -13 22 6 0 -1 6 -15 13 -16 8 -25
21 -24 35 0 16 -3 19 -12 11 -9 -7 -17 -4 -28 12 -8 12 -13 26 -10 31 3 5 2 7
-3 6 -17 -6 -69 60 -81 102 -9 32 -10 120 -1 120 5 0 9 5 9 11 0 5 -4 8 -8 5
-4 -2 -8 17 -7 44 0 27 -2 46 -4 44 -3 -2 -10 13 -17 33 -10 27 -10 41 -2 50
9 11 7 12 -8 6 -17 -6 -18 -5 -5 11 11 13 11 16 1 14 -8 -2 -21 21 -34 61 -12
36 -28 67 -34 69 -7 2 -12 0 -12 -5z m-786 -508 c3 -8 1 -15 -3 -15 -5 0 -11
7 -15 15 -3 8 -1 15 3 15 5 0 11 -7 15 -15z m886 -3791 c0 -8 -5 -12 -10 -9
-6 4 -8 11 -5 16 9 14 15 11 15 -7z m-730 -195 c0 -6 -4 -7 -10 -4 -5 3 -10
11 -10 16 0 6 5 7 10 4 6 -3 10 -11 10 -16z"/>
<path d="M2940 4860 c-9 -6 -10 -10 -3 -10 6 0 15 5 18 10 8 12 4 12 -15 0z"/>
<path d="M2976 4835 c-9 -26 -7 -32 5 -12 6 10 9 21 6 23 -2 3 -7 -2 -11 -11z"/>
<path d="M1974 4819 c-3 -6 -2 -15 3 -20 5 -5 9 -1 9 11 0 23 -2 24 -12 9z"/>
<path d="M2027 4739 c7 -7 15 -10 18 -7 3 3 -2 9 -12 12 -14 6 -15 5 -6 -5z"/>
<path d="M2985 4720 c-3 -5 -1 -10 4 -10 6 0 11 5 11 10 0 6 -2 10 -4 10 -3 0
-8 -4 -11 -10z"/>
<path d="M1095 4700 c3 -5 8 -10 11 -10 2 0 4 5 4 10 0 6 -5 10 -11 10 -5 0
-7 -4 -4 -10z"/>
<path d="M2030 4699 c0 -5 5 -7 10 -4 6 3 10 8 10 11 0 2 -4 4 -10 4 -5 0 -10
-5 -10 -11z"/>
<path d="M2053 4675 c0 -8 4 -12 9 -9 5 3 6 10 3 15 -9 13 -12 11 -12 -6z"/>
<path d="M1106 4657 c3 -10 9 -15 12 -12 3 3 0 11 -7 18 -10 9 -11 8 -5 -6z"/>
<path d="M3013 4601 c0 -11 5 -18 9 -15 4 3 5 11 1 19 -7 21 -12 19 -10 -4z"/>
<path d="M2066 4601 c-3 -4 4 -7 14 -6 27 2 33 10 10 12 -11 1 -22 -2 -24 -6z"/>
<path d="M3016 4527 c3 -10 9 -15 12 -12 3 3 0 11 -7 18 -10 9 -11 8 -5 -6z"/>
<path d="M2083 4503 c-7 -2 -13 -9 -13 -15 0 -7 5 -7 13 1 8 6 18 7 22 3 5 -4
5 -1 1 6 -4 6 -8 12 -9 11 -1 0 -8 -3 -14 -6z"/>
<path d="M1145 4479 c-4 -6 -5 -12 -2 -15 2 -3 7 2 10 11 7 17 1 20 -8 4z"/>
<path d="M2070 4461 c0 -6 4 -12 8 -15 5 -3 9 1 9 9 0 8 -4 15 -9 15 -4 0 -8
-4 -8 -9z"/>
<path d="M1146 4398 c3 -4 15 -13 27 -18 20 -10 20 -10 5 3 -10 8 -16 16 -13
19 3 2 -2 5 -10 5 -8 0 -12 -4 -9 -9z"/>
<path d="M3056 4387 c3 -10 9 -15 12 -12 3 3 0 11 -7 18 -10 9 -11 8 -5 -6z"/>
<path d="M2137 4335 c-4 -8 -3 -16 1 -19 4 -3 9 4 9 15 2 23 -3 25 -10 4z"/>
<path d="M1210 4320 c0 -5 5 -10 11 -10 5 0 7 5 4 10 -3 6 -8 10 -11 10 -2 0
-4 -4 -4 -10z"/>
<path d="M3114 4308 l-19 -23 23 19 c12 11 22 21 22 23 0 8 -8 2 -26 -19z"/>
<path d="M2330 4106 c0 -3 9 -10 20 -16 11 -6 20 -8 20 -6 0 3 -9 10 -20 16
-11 6 -20 8 -20 6z"/>
<path d="M675 4051 c-3 -5 -2 -12 3 -15 5 -3 9 1 9 9 0 17 -3 19 -12 6z"/>
<path d="M676 3998 c3 -5 10 -6 15 -3 13 9 11 12 -6 12 -8 0 -12 -4 -9 -9z"/>
<path d="M3415 3921 c-3 -5 -2 -12 3 -15 5 -3 9 1 9 9 0 17 -3 19 -12 6z"/>
<path d="M3486 3778 c3 -5 10 -6 15 -3 13 9 11 12 -6 12 -8 0 -12 -4 -9 -9z"/>
<path d="M3530 3700 c0 -5 5 -10 11 -10 5 0 7 5 4 10 -3 6 -8 10 -11 10 -2 0
-4 -4 -4 -10z"/>
<path d="M4050 3341 c0 -6 4 -13 10 -16 6 -3 7 1 4 9 -7 18 -14 21 -14 7z"/>
<path d="M4966 3002 c-3 -5 1 -9 9 -9 8 0 12 4 9 9 -3 4 -7 8 -9 8 -2 0 -6 -4
-9 -8z"/>
<path d="M4996 2941 c-3 -5 2 -15 12 -22 15 -12 16 -12 5 2 -7 9 -10 19 -6 22
3 4 4 7 0 7 -3 0 -8 -4 -11 -9z"/>
<path d="M5035 2840 c-3 -5 -1 -10 4 -10 6 0 11 5 11 10 0 6 -2 10 -4 10 -3 0
-8 -4 -11 -10z"/>
<path d="M5056 2814 c-8 -20 -8 -24 2 -24 4 0 8 9 9 20 2 24 -3 26 -11 4z"/>
<path d="M5070 2765 c0 -5 5 -17 10 -25 5 -8 10 -10 10 -5 0 6 -5 17 -10 25
-5 8 -10 11 -10 5z"/>
<path d="M5086 2678 c3 -5 10 -6 15 -3 13 9 11 12 -6 12 -8 0 -12 -4 -9 -9z"/>
<path d="M5119 2648 c-5 -18 -6 -38 -1 -34 7 8 12 36 6 36 -2 0 -4 -1 -5 -2z"/>
<path d="M5101 2554 c0 -11 3 -14 6 -6 3 7 2 16 -1 19 -3 4 -6 -2 -5 -13z"/>
<path d="M5093 2493 c-17 -6 -17 -20 0 -26 8 -3 13 3 13 14 0 11 0 19 -1 18 0
0 -6 -3 -12 -6z"/>
<path d="M5109 2437 c6 -8 7 -18 3 -22 -4 -5 -1 -5 6 -1 10 6 10 11 1 22 -6 8
-14 14 -16 14 -3 0 0 -6 6 -13z"/>
<path d="M5071 2394 c0 -11 3 -14 6 -6 3 7 2 16 -1 19 -3 4 -6 -2 -5 -13z"/>
<path d="M5086 2358 c3 -5 10 -6 15 -3 13 9 11 12 -6 12 -8 0 -12 -4 -9 -9z"/>
<path d="M5060 2346 c0 -2 7 -7 16 -10 8 -3 12 -2 9 4 -6 10 -25 14 -25 6z"/>
<path d="M5055 2230 c6 -10 4 -12 -8 -7 -10 3 -17 2 -17 -3 0 -13 27 -13 35
-1 3 5 0 13 -6 17 -8 5 -9 3 -4 -6z"/>
<path d="M155 2220 c-3 -5 -1 -10 4 -10 6 0 11 5 11 10 0 6 -2 10 -4 10 -3 0
-8 -4 -11 -10z"/>
<path d="M5075 2180 c-3 -5 -1 -10 4 -10 6 0 11 5 11 10 0 6 -2 10 -4 10 -3 0
-8 -4 -11 -10z"/>
<path d="M5030 2128 c-10 -21 -10 -21 3 -6 8 10 18 14 22 10 5 -4 5 -1 1 6
-10 17 -14 15 -26 -10z"/>
<path d="M4997 2125 c-4 -8 -3 -16 1 -19 4 -3 9 4 9 15 2 23 -3 25 -10 4z"/>
<path d="M4980 2068 c-10 -21 -10 -21 3 -6 8 10 17 15 20 11 4 -3 7 -1 7 5 0
20 -19 13 -30 -10z"/>
<path d="M4995 2051 c-3 -5 -2 -12 3 -15 5 -3 9 1 9 9 0 17 -3 19 -12 6z"/>
<path d="M4935 1980 c-3 -5 -1 -10 4 -10 6 0 11 5 11 10 0 6 -2 10 -4 10 -3 0
-8 -4 -11 -10z"/>
<path d="M4886 1891 c-4 -5 -2 -12 3 -15 5 -4 12 -2 15 3 4 5 2 12 -3 15 -5 4
-12 2 -15 -3z"/>
<path d="M4939 1898 c-6 -20 -6 -39 0 -42 4 -3 7 6 7 20 0 20 -4 32 -7 22z"/>
<path d="M4863 1845 c-3 -9 -3 -19 1 -22 3 -4 6 1 6 10 0 8 6 18 13 20 9 4 9
6 -1 6 -7 1 -15 -6 -19 -14z"/>
<path d="M4867 1799 c7 -7 15 -10 18 -7 3 3 -2 9 -12 12 -14 6 -15 5 -6 -5z"/>
<path d="M4810 1762 c0 -5 7 -9 15 -9 8 0 12 4 9 9 -3 4 -9 8 -15 8 -5 0 -9
-4 -9 -8z"/>
<path d="M4790 1730 c0 -5 7 -7 15 -4 8 4 15 8 15 10 0 2 -7 4 -15 4 -8 0 -15
-4 -15 -10z"/>
<path d="M4773 1697 c-3 -4 -2 -11 1 -14 3 -4 6 -1 6 5 0 6 6 9 14 6 8 -3 16
-2 19 3 3 5 -3 9 -14 9 -11 0 -23 -4 -26 -9z"/>
<path d="M4836 1702 c-3 -5 1 -9 9 -9 8 0 12 4 9 9 -3 4 -7 8 -9 8 -2 0 -6 -4
-9 -8z"/>
<path d="M4735 1671 c-3 -5 0 -13 6 -17 8 -4 9 -3 5 4 -9 15 6 16 21 1 8 -8
13 -7 18 2 5 7 4 10 -3 5 -6 -3 -13 -2 -17 4 -8 13 -22 13 -30 1z"/>
<path d="M306 1642 c-3 -5 1 -9 9 -9 8 0 12 4 9 9 -3 4 -7 8 -9 8 -2 0 -6 -4
-9 -8z"/>
<path d="M4714 1639 c-4 -7 -3 -9 4 -5 5 3 13 0 15 -6 4 -9 6 -10 6 -1 1 17
-16 25 -25 12z"/>
<path d="M4690 1621 c0 -5 5 -13 10 -16 6 -3 10 -2 10 4 0 5 -4 13 -10 16 -5
3 -10 2 -10 -4z"/>
<path d="M4615 1550 c-3 -5 -1 -10 4 -10 6 0 11 5 11 10 0 6 -2 10 -4 10 -3 0
-8 -4 -11 -10z"/>
<path d="M4670 1540 c0 -5 9 -8 20 -7 21 1 18 10 -5 13 -8 1 -15 -2 -15 -6z"/>
<path d="M4600 1521 c0 -5 7 -11 14 -14 10 -4 13 -1 9 9 -6 15 -23 19 -23 5z"/>
<path d="M4563 1500 c-23 -10 -32 -30 -12 -30 5 0 7 5 4 10 -3 6 1 10 9 10 8
0 18 5 21 10 7 12 7 12 -22 0z"/>
<path d="M4595 1489 c-4 -6 -5 -12 -2 -15 2 -3 7 2 10 11 7 17 1 20 -8 4z"/>
<path d="M4516 1453 c-6 -14 -5 -15 5 -6 7 7 10 15 7 18 -3 3 -9 -2 -12 -12z"/>
<path d="M4546 1447 c-16 -12 -16 -13 2 -13 10 0 19 6 19 13 0 7 -1 13 -2 13
-1 0 -9 -6 -19 -13z"/>
<path d="M4460 1420 c0 -5 5 -10 11 -10 5 0 7 5 4 10 -3 6 -8 10 -11 10 -2 0
-4 -4 -4 -10z"/>
<path d="M4355 1349 c-4 -6 -5 -12 -2 -15 2 -3 7 2 10 11 7 17 1 20 -8 4z"/>
<path d="M4365 1324 c-9 -15 -12 -23 -6 -20 11 7 35 46 28 46 -3 0 -12 -12
-22 -26z"/>
<path d="M4257 1285 c-4 -8 -3 -16 1 -19 4 -3 9 4 9 15 2 23 -3 25 -10 4z"/>
<path d="M4140 1251 c0 -10 19 -25 25 -20 1 2 -3 10 -11 17 -8 7 -14 8 -14 3z"/>
<path d="M4095 1240 c-3 -5 -1 -10 4 -10 6 0 11 5 11 10 0 6 -2 10 -4 10 -3 0
-8 -4 -11 -10z"/>
<path d="M4070 1231 c0 -6 4 -13 10 -16 6 -3 7 1 4 9 -7 18 -14 21 -14 7z"/>
<path d="M4115 1220 c-3 -5 -1 -10 4 -10 6 0 11 5 11 10 0 6 -2 10 -4 10 -3 0
-8 -4 -11 -10z"/>
<path d="M4010 1200 c0 -5 5 -10 10 -10 6 0 10 5 10 10 0 6 -4 10 -10 10 -5 0
-10 -4 -10 -10z"/>
<path d="M4050 1199 c0 -5 5 -7 10 -4 6 3 10 8 10 11 0 2 -4 4 -10 4 -5 0 -10
-5 -10 -11z"/>
<path d="M3855 1169 c-4 -6 -4 -13 -1 -16 3 -4 6 -1 6 5 0 6 8 13 18 15 15 4
15 5 0 6 -9 0 -20 -4 -23 -10z"/>
<path d="M3935 1160 c-3 -6 1 -7 9 -4 18 7 21 14 7 14 -6 0 -13 -4 -16 -10z"/>
<path d="M3810 1130 c-6 -11 -8 -20 -6 -20 3 0 10 9 16 20 6 11 8 20 6 20 -3
0 -10 -9 -16 -20z"/>
<path d="M3727 1116 c-17 -13 -17 -14 0 -20 10 -4 14 -4 10 0 -4 4 -2 13 4 21
14 17 9 16 -14 -1z"/>
<path d="M3760 1126 c0 -2 7 -7 16 -10 8 -3 12 -2 9 4 -6 10 -25 14 -25 6z"/>
<path d="M656 1102 c-2 -4 -1 -14 4 -22 7 -11 9 -9 7 8 -1 24 -3 26 -11 14z"/>
<path d="M3790 1096 c0 -2 8 -10 18 -17 15 -13 16 -12 3 4 -13 16 -21 21 -21
13z"/>
<path d="M3710 1080 c0 -5 5 -10 11 -10 5 0 7 5 4 10 -3 6 -8 10 -11 10 -2 0
-4 -4 -4 -10z"/>
<path d="M3746 1082 c-2 -4 4 -8 14 -8 10 0 16 4 14 8 -3 4 -9 8 -14 8 -5 0
-11 -4 -14 -8z"/>
<path d="M3648 1045 c-20 -13 -39 -29 -43 -35 -9 -14 1 -13 17 3 16 15 65 47
73 47 4 0 3 -5 -1 -12 -4 -7 -3 -8 5 -4 11 7 6 27 -7 25 -4 0 -24 -11 -44 -24z"/>
<path d="M735 1000 c-3 -6 1 -7 9 -4 18 7 21 14 7 14 -6 0 -13 -4 -16 -10z"/>
<path d="M3659 993 c-12 -16 -12 -17 2 -6 9 7 20 9 24 5 5 -4 5 -1 1 6 -9 16
-11 15 -27 -5z"/>
<path d="M770 980 c0 -5 5 -10 11 -10 5 0 7 5 4 10 -3 6 -8 10 -11 10 -2 0 -4
-4 -4 -10z"/>
<path d="M3592 960 c0 -14 2 -19 5 -12 2 6 2 18 0 25 -3 6 -5 1 -5 -13z"/>
<path d="M3561 953 c-5 -10 -13 -17 -18 -15 -4 1 -9 -7 -9 -18 -1 -11 2 -17 7
-14 4 2 6 11 3 19 -4 10 0 13 13 11 13 -3 19 2 19 15 0 23 -2 24 -15 2z"/>
<path d="M3635 929 c-4 -6 -5 -12 -2 -15 2 -3 7 2 10 11 7 17 1 20 -8 4z"/>
<path d="M815 920 c-3 -6 1 -7 9 -4 18 7 21 14 7 14 -6 0 -13 -4 -16 -10z"/>
<path d="M3455 900 c-3 -5 0 -12 6 -16 8 -5 9 -3 4 6 -6 10 -4 12 8 7 9 -3 18
-3 21 1 3 4 -4 8 -14 9 -11 1 -22 -2 -25 -7z"/>
<path d="M3434 882 c3 -5 0 -13 -6 -15 -9 -4 -10 -6 -1 -6 17 -1 25 16 12 25
-7 4 -9 3 -5 -4z"/>
<path d="M876 858 c3 -5 10 -6 15 -3 13 9 11 12 -6 12 -8 0 -12 -4 -9 -9z"/>
<path d="M3375 840 c3 -5 8 -10 11 -10 2 0 4 5 4 10 0 6 -5 10 -11 10 -5 0 -7
-4 -4 -10z"/>
<path d="M3340 826 c0 -2 9 -6 20 -9 11 -3 18 -1 14 4 -5 9 -34 13 -34 5z"/>
<path d="M3321 804 c0 -11 3 -14 6 -6 3 7 2 16 -1 19 -3 4 -6 -2 -5 -13z"/>
<path d="M3346 778 c3 -5 10 -6 15 -3 13 9 11 12 -6 12 -8 0 -12 -4 -9 -9z"/>
<path d="M3239 768 c-8 -27 -5 -36 9 -30 10 4 12 7 4 10 -7 2 -10 8 -6 13 3 5
3 9 0 9 -3 0 -6 -1 -7 -2z"/>
<path d="M3295 761 c-3 -5 -2 -12 3 -15 5 -3 9 1 9 9 0 17 -3 19 -12 6z"/>
<path d="M1051 733 c-1 -17 16 -25 25 -12 4 7 3 9 -4 5 -5 -3 -13 0 -15 6 -4
9 -6 10 -6 1z"/>
<path d="M3245 720 c-3 -6 1 -7 9 -4 18 7 21 14 7 14 -6 0 -13 -4 -16 -10z"/>
<path d="M3156 661 c-3 -5 1 -14 8 -20 10 -9 16 -9 21 -1 4 6 1 9 -7 8 -7 -2
-12 3 -10 10 2 14 -4 16 -12 3z"/>
<path d="M1195 641 c-3 -5 -2 -12 3 -15 5 -3 9 1 9 9 0 17 -3 19 -12 6z"/>
<path d="M3013 605 c-3 -9 -3 -18 -1 -21 3 -3 8 4 11 16 6 23 -1 27 -10 5z"/>
<path d="M1300 580 c-9 -6 -10 -10 -3 -10 6 0 15 5 18 10 8 12 4 12 -15 0z"/>
<path d="M2945 560 c3 -5 8 -10 11 -10 2 0 4 5 4 10 0 6 -5 10 -11 10 -5 0 -7
-4 -4 -10z"/>
<path d="M2979 553 c-13 -17 -13 -17 6 -3 11 8 22 16 24 17 2 2 0 3 -6 3 -6 0
-17 -8 -24 -17z"/>
<path d="M3070 559 c0 -5 5 -7 10 -4 6 3 10 8 10 11 0 2 -4 4 -10 4 -5 0 -10
-5 -10 -11z"/>
<path d="M2920 540 c-9 -6 -10 -10 -3 -10 6 0 15 5 18 10 8 12 4 12 -15 0z"/>
<path d="M2878 533 c7 -3 16 -2 19 1 4 3 -2 6 -13 5 -11 0 -14 -3 -6 -6z"/>
<path d="M1350 520 c0 -5 5 -10 11 -10 5 0 7 5 4 10 -3 6 -8 10 -11 10 -2 0
-4 -4 -4 -10z"/>
<path d="M1413 514 c0 -9 4 -11 12 -4 7 5 14 9 16 7 2 -1 3 0 1 2 -7 11 -29 7
-29 -5z"/>
<path d="M1475 500 c-3 -5 -1 -10 4 -10 6 0 11 5 11 10 0 6 -2 10 -4 10 -3 0
-8 -4 -11 -10z"/>
<path d="M2740 496 c0 -2 7 -7 16 -10 8 -3 12 -2 9 4 -6 10 -25 14 -25 6z"/>
<path d="M1505 480 c-3 -6 1 -7 9 -4 18 7 21 14 7 14 -6 0 -13 -4 -16 -10z"/>
<path d="M2706 478 c3 -4 9 -8 15 -8 5 0 9 4 9 8 0 5 -7 9 -15 9 -8 0 -12 -4
-9 -9z"/>
<path d="M2670 476 c0 -3 9 -10 20 -16 11 -6 20 -8 20 -6 0 3 -9 10 -20 16
-11 6 -20 8 -20 6z"/>
<path d="M1596 462 c-2 -4 4 -8 14 -8 10 0 16 4 14 8 -3 4 -9 8 -14 8 -5 0
-11 -4 -14 -8z"/>
<path d="M2615 460 c-3 -5 -1 -10 6 -10 8 0 7 -5 -2 -17 -13 -16 -12 -17 3 -5
9 8 14 20 11 28 -6 17 -10 17 -18 4z"/>
<path d="M2648 463 c6 -2 9 -10 6 -15 -4 -7 -2 -8 5 -4 13 9 5 26 -12 25 -9 0
-8 -2 1 -6z"/>
<path d="M1661 438 c-13 -20 -12 -22 1 -11 8 7 18 10 22 6 4 -4 4 0 0 10 -8
21 -6 21 -23 -5z"/>
<path d="M2510 430 c8 -5 20 -10 25 -10 6 0 3 5 -5 10 -8 5 -19 10 -25 10 -5
0 -3 -5 5 -10z"/>
<path d="M1719 428 c-5 -18 -6 -38 -1 -34 7 8 12 36 6 36 -2 0 -4 -1 -5 -2z"/>
<path d="M2480 426 c0 -2 8 -10 18 -17 15 -13 16 -12 3 4 -13 16 -21 21 -21
13z"/>
<path d="M1836 398 c3 -5 10 -6 15 -3 13 9 11 12 -6 12 -8 0 -12 -4 -9 -9z"/>
<path d="M2296 393 c-6 -14 -5 -15 5 -6 7 7 10 15 7 18 -3 3 -9 -2 -12 -12z"/>
<path d="M2353 393 c0 -6 5 -9 11 -5 6 4 14 7 18 7 19 0 14 11 -6 11 -12 0
-23 -6 -23 -13z"/>
<path d="M2526 398 c3 -5 10 -6 15 -3 13 9 11 12 -6 12 -8 0 -12 -4 -9 -9z"/>
<path d="M2033 385 c0 -8 4 -15 9 -15 4 0 8 4 8 9 0 6 -4 12 -8 15 -5 3 -9 -1
-9 -9z"/>
<path d="M2186 383 c-6 -14 -5 -15 5 -6 7 7 10 15 7 18 -3 3 -9 -2 -12 -12z"/>
<path d="M2115 381 c-3 -5 0 -13 6 -17 8 -5 9 -3 4 6 -6 10 -4 12 9 7 10 -4
15 -3 11 3 -8 13 -22 13 -30 1z"/>
<path d="M2310 360 c0 -5 5 -10 11 -10 5 0 7 5 4 10 -3 6 -8 10 -11 10 -2 0
-4 -4 -4 -10z"/>
</g>
</svg>
